<svg width="42" height="42" viewBox="0 0 42 42" fill="none" xmlns="http://www.w3.org/2000/svg">
<path d="M37.9575 19.6735C38.0218 19.4156 38.0266 19.1464 37.9713 18.8864C37.9161 18.6264 37.8024 18.3823 37.6387 18.1728C37.4751 17.9633 37.2659 17.7939 37.027 17.6773C36.7881 17.5607 36.5258 17.5001 36.26 17.5H5.74001C5.47419 17.5001 5.21187 17.5607 4.97298 17.6773C4.73409 17.7939 4.5249 17.9633 4.36128 18.1728C4.19766 18.3823 4.08392 18.6264 4.02868 18.8864C3.97345 19.1464 3.97818 19.4156 4.0425 19.6735L7.21176 32.3488C7.40102 33.1059 7.83795 33.7781 8.45308 34.2585C9.06822 34.7389 9.82627 34.9999 10.6068 35H31.3933C32.1737 34.9999 32.9318 34.7389 33.5469 34.2585C34.1621 33.7781 34.599 33.1059 34.7883 32.3488L37.9575 19.6753V19.6735Z" stroke="#4C5BD4" stroke-width="2" stroke-linejoin="round"/>
<path d="M31.5 17.5L24.5 7" stroke="#4C5BD4" stroke-width="2" stroke-linecap="round"/>
<path d="M10.5 17.5L17.5 7" stroke="#4C5BD4" stroke-width="2" stroke-linecap="round"/>
<mask id="path-4-inside-1_317_4072" fill="white">
<path fill-rule="evenodd" clip-rule="evenodd" d="M22.4 30.3292C22.4 31.3519 21.7654 32.2 21 32.2C20.2347 32.2 19.6 31.3768 19.6 30.3292V28H17.2708C16.2481 28 15.4 27.3653 15.4 26.6C15.4 25.8346 16.2481 25.2 17.2708 25.2H19.6V22.8708C19.6 21.8481 20.2347 21 21 21C21.7654 21 22.4 21.8481 22.4 22.8708V25.2H24.7291C25.7519 25.2 26.6 25.8346 26.6 26.6C26.6 27.3653 25.7519 28 24.7291 28H22.4V30.3292Z"/>
</mask>
<path fill-rule="evenodd" clip-rule="evenodd" d="M22.4 30.3292C22.4 31.3519 21.7654 32.2 21 32.2C20.2347 32.2 19.6 31.3768 19.6 30.3292V28H17.2708C16.2481 28 15.4 27.3653 15.4 26.6C15.4 25.8346 16.2481 25.2 17.2708 25.2H19.6V22.8708C19.6 21.8481 20.2347 21 21 21C21.7654 21 22.4 21.8481 22.4 22.8708V25.2H24.7291C25.7519 25.2 26.6 25.8346 26.6 26.6C26.6 27.3653 25.7519 28 24.7291 28H22.4V30.3292Z" fill="#4C5BD4"/>
<path d="M19.6 28V27.5H20.1V28H19.6ZM19.6 25.2H20.1V25.7H19.6V25.2ZM22.4 25.2V25.7H21.9V25.2H22.4ZM22.4 28H21.9V27.5H22.4V28ZM21 31.7C21.1864 31.7 21.4009 31.5968 21.5867 31.3485C21.7716 31.1015 21.9 30.7408 21.9 30.3292H22.9C22.9 30.9403 22.7112 31.515 22.3873 31.9477C22.0645 32.3791 21.5789 32.7 21 32.7V31.7ZM20.1 30.3292C20.1 30.7552 20.2296 31.1145 20.412 31.3561C20.5946 31.5978 20.8084 31.7 21 31.7V32.7C20.4264 32.7 19.9401 32.3906 19.614 31.9588C19.2878 31.5269 19.1 30.9508 19.1 30.3292H20.1ZM20.1 28V30.3292H19.1V28H20.1ZM17.2708 27.5H19.6V28.5H17.2708V27.5ZM15.9 26.6C15.9 26.7864 16.0032 27.0008 16.2514 27.1866C16.4985 27.3715 16.8592 27.5 17.2708 27.5V28.5C16.6597 28.5 16.085 28.3111 15.6523 27.9873C15.2208 27.6644 14.9 27.1789 14.9 26.6H15.9ZM17.2708 25.7C16.8592 25.7 16.4985 25.8284 16.2514 26.0133C16.0032 26.1991 15.9 26.4135 15.9 26.6H14.9C14.9 26.021 15.2208 25.5355 15.6523 25.2126C16.085 24.8888 16.6597 24.7 17.2708 24.7V25.7ZM19.6 25.7H17.2708V24.7H19.6V25.7ZM20.1 22.8708V25.2H19.1V22.8708H20.1ZM21 21.5C20.8136 21.5 20.5991 21.6032 20.4133 21.8515C20.2285 22.0985 20.1 22.4592 20.1 22.8708H19.1C19.1 22.2597 19.2889 21.685 19.6127 21.2523C19.9356 20.8209 20.4211 20.5 21 20.5V21.5ZM21.9 22.8708C21.9 22.4592 21.7716 22.0985 21.5867 21.8515C21.4009 21.6032 21.1864 21.5 21 21.5V20.5C21.5789 20.5 22.0645 20.8209 22.3873 21.2523C22.7112 21.685 22.9 22.2597 22.9 22.8708H21.9ZM21.9 25.2V22.8708H22.9V25.2H21.9ZM24.7291 25.7H22.4V24.7H24.7291V25.7ZM26.1 26.6C26.1 26.4135 25.9968 26.1991 25.7485 26.0133C25.5015 25.8284 25.1408 25.7 24.7291 25.7V24.7C25.3403 24.7 25.9149 24.8888 26.3477 25.2126C26.7791 25.5355 27.1 26.021 27.1 26.6H26.1ZM24.7291 27.5C25.1408 27.5 25.5015 27.3715 25.7485 27.1866C25.9968 27.0008 26.1 26.7864 26.1 26.6H27.1C27.1 27.1789 26.7791 27.6644 26.3477 27.9873C25.9149 28.3111 25.3403 28.5 24.7291 28.5V27.5ZM22.4 27.5H24.7291V28.5H22.4V27.5ZM21.9 30.3292V28H22.9V30.3292H21.9Z" fill="white" mask="url(#path-4-inside-1_317_4072)"/>
</svg>
