<svg width="30" height="30" viewBox="0 0 30 30" fill="none" xmlns="http://www.w3.org/2000/svg">
<path d="M2.8875 14.0525C2.84155 13.8683 2.83817 13.676 2.87762 13.4903C2.91708 13.3045 2.99832 13.1302 3.11519 12.9806C3.23206 12.831 3.38149 12.7099 3.55212 12.6266C3.72276 12.5434 3.91012 12.5001 4.1 12.5H25.9C26.0899 12.5001 26.2772 12.5434 26.4479 12.6266C26.6185 12.7099 26.7679 12.831 26.8848 12.9806C27.0017 13.1302 27.0829 13.3045 27.1224 13.4903C27.1618 13.676 27.1584 13.8683 27.1125 14.0525L24.8487 23.1063C24.7136 23.6471 24.4015 24.1272 23.9621 24.4704C23.5227 24.8135 22.9812 24.9999 22.4237 25H7.57625C7.01876 24.9999 6.47729 24.8135 6.03791 24.4704C5.59853 24.1272 5.28644 23.6471 5.15125 23.1063L2.8875 14.0538V14.0525Z" stroke="#4C5BD4" stroke-width="2" stroke-linejoin="round"/>
<path d="M11.25 17.5V20" stroke="#4C5BD4" stroke-width="2" stroke-linecap="round"/>
<path d="M18.75 17.5V20" stroke="#4C5BD4" stroke-width="2" stroke-linecap="round"/>
<path d="M7.5 12.5L12.5 5" stroke="#4C5BD4" stroke-width="2" stroke-linecap="round"/>
<path d="M22.5 12.5L17.5 5" stroke="#4C5BD4" stroke-width="2" stroke-linecap="round"/>
</svg>
