<svg width="35" height="35" viewBox="0 0 35 35" fill="none" xmlns="http://www.w3.org/2000/svg">
<g clip-path="url(#clip0_859_5356)">
<path d="M5.49665 31.7643C5.24693 31.7643 4.99489 31.7099 4.75755 31.5982C4.11347 31.2954 3.72423 30.6408 3.76579 29.9302L3.98905 26.117H2.27815C1.02197 26.117 0 25.0951 0 23.8388V11.4222C0 10.1659 1.02197 9.14404 2.27815 9.14404H21.6849C22.9411 9.14404 23.963 10.166 23.963 11.4222V23.8388C23.963 25.095 22.941 26.117 21.6849 26.117H19.5385C19.0169 26.117 18.594 25.6941 18.594 25.1724C18.594 24.6508 19.0169 24.2279 19.5385 24.2279H21.6849C21.8995 24.2279 22.0741 24.0534 22.0741 23.8387V11.4222C22.0741 11.2076 21.8996 11.033 21.6849 11.033H2.27815C2.06364 11.033 1.88898 11.2075 1.88898 11.4222V23.8388C1.88898 24.0533 2.0635 24.228 2.27815 24.228H4.99052C5.25056 24.228 5.49911 24.3352 5.67767 24.5245C5.85609 24.7137 5.94864 24.9681 5.93347 25.2277L5.67466 29.6475L11.2155 24.4817C11.3904 24.3186 11.6205 24.228 11.8596 24.228H15.1857C15.7073 24.228 16.1302 24.6509 16.1302 25.1725C16.1302 25.6942 15.7073 26.117 15.1857 26.117H12.2315L6.67462 31.2978C6.34602 31.6042 5.92465 31.7643 5.49665 31.7643Z" fill="#4C5BD4"/>
<path d="M32.7229 4.18018H13.3161C12.5796 4.18018 11.9824 4.7773 11.9824 5.5138V10.0883H21.6858C22.4224 10.0883 23.0195 10.6854 23.0195 11.422V19.2641H23.1414L28.9703 24.6985C29.4895 25.1825 30.3337 24.7856 30.2922 24.077L30.0104 19.264H32.7228C33.4593 19.264 34.0564 18.6669 34.0564 17.9303V5.5138C34.0565 4.77723 33.4594 4.18018 32.7229 4.18018Z" fill="#4C5BD4" fill-opacity="0.2"/>
<path d="M29.5015 25.8564C29.0667 25.8564 28.6495 25.6906 28.3264 25.3895L22.7161 20.159C22.3434 20.0326 22.0751 19.6797 22.0751 19.2642V11.4221C22.0751 11.2076 21.9005 11.0329 21.6859 11.0329H11.9826C11.461 11.0329 11.0381 10.6101 11.0381 10.0884V5.51399C11.0381 4.25775 12.0601 3.23584 13.3162 3.23584H32.723C33.9791 3.23584 35.0011 4.25781 35.0011 5.51399V17.9306C35.0011 19.1868 33.9791 20.2088 32.723 20.2088H31.012L31.2352 24.022C31.2635 24.5042 31.0989 24.9608 30.7717 25.3077C30.4429 25.6564 29.9799 25.8564 29.5015 25.8564ZM23.9642 18.7398L29.3265 23.7392L29.0677 19.3195C29.0525 19.0598 29.1451 18.8055 29.3235 18.6162C29.502 18.427 29.7505 18.3197 30.0107 18.3197H32.723C32.9375 18.3197 33.1122 18.1452 33.1122 17.9305V5.51399C33.1122 5.29948 32.9377 5.12482 32.723 5.12482H13.3162C13.1017 5.12482 12.9271 5.29934 12.9271 5.51399V9.14395H21.686C22.9421 9.14395 23.9641 10.1659 23.9641 11.4221V18.7398H23.9642Z" fill="#4C5BD4"/>
<path d="M17.5004 16.4354H6.1662C5.64455 16.4354 5.22168 16.0126 5.22168 15.4909C5.22168 14.9693 5.64455 14.5464 6.1662 14.5464H17.5004C18.0221 14.5464 18.4449 14.9693 18.4449 15.4909C18.4449 16.0126 18.0221 16.4354 17.5004 16.4354Z" fill="#4C5BD4"/>
<path d="M16.006 21.2782H7.66279C7.14113 21.2782 6.71826 20.8553 6.71826 20.3337C6.71826 19.812 7.14113 19.3892 7.66279 19.3892H16.006C16.5276 19.3892 16.9505 19.812 16.9505 20.3337C16.9505 20.8553 16.5276 21.2782 16.006 21.2782Z" fill="#4C5BD4"/>
</g>
<defs>
<clipPath id="clip0_859_5356">
<rect width="35" height="35" fill="white"/>
</clipPath>
</defs>
</svg>
