<svg width="30" height="30" viewBox="0 0 30 30" fill="none" xmlns="http://www.w3.org/2000/svg">
<path d="M6.92547 24.4004C6.16297 24.4004 5.45047 24.1379 4.93797 23.6504C4.28797 23.0379 3.97547 22.1129 4.08797 21.1129L4.55047 17.0629C4.63797 16.3004 5.10047 15.2879 5.63797 14.7379L15.9005 3.87543C18.463 1.16293 21.138 1.08793 23.8505 3.65043C26.563 6.21293 26.638 8.88793 24.0755 11.6004L13.813 22.4629C13.288 23.0254 12.313 23.5504 11.5505 23.6754L7.52547 24.3629C7.31297 24.3754 7.12547 24.4004 6.92547 24.4004ZM19.913 3.63793C18.9505 3.63793 18.113 4.23793 17.263 5.13793L7.00047 16.0129C6.75047 16.2754 6.46297 16.9004 6.41297 17.2629L5.95047 21.3129C5.90047 21.7254 6.00047 22.0629 6.22547 22.2754C6.45047 22.4879 6.78797 22.5629 7.20047 22.5004L11.2255 21.8129C11.588 21.7504 12.188 21.4254 12.438 21.1629L22.7005 10.3004C24.2505 8.65043 24.813 7.12543 22.5505 5.00043C21.5505 4.03793 20.688 3.63793 19.913 3.63793Z" fill="#474747"/>
<path d="M21.6746 13.6871C21.6496 13.6871 21.6121 13.6871 21.5871 13.6871C17.6871 13.2996 14.5496 10.3371 13.9496 6.46207C13.8746 5.94957 14.2246 5.47457 14.7371 5.38707C15.2496 5.31207 15.7246 5.66207 15.8121 6.17457C16.2871 9.19957 18.7371 11.5246 21.7871 11.8246C22.2996 11.8746 22.6746 12.3371 22.6246 12.8496C22.5621 13.3246 22.1496 13.6871 21.6746 13.6871Z" fill="#474747"/>
<path d="M26.25 28.4375H3.75C3.2375 28.4375 2.8125 28.0125 2.8125 27.5C2.8125 26.9875 3.2375 26.5625 3.75 26.5625H26.25C26.7625 26.5625 27.1875 26.9875 27.1875 27.5C27.1875 28.0125 26.7625 28.4375 26.25 28.4375Z" fill="#474747"/>
</svg>
