<svg width="35" height="35" viewBox="0 0 35 35" fill="none" xmlns="http://www.w3.org/2000/svg">
<g clip-path="url(#clip0_859_5379)">
<path d="M29.5633 35H26.9816C26.4334 35 25.9888 34.5555 25.9888 34.0072C25.9888 33.4589 26.4334 33.0144 26.9816 33.0144H29.5633C31.4664 33.0144 33.0148 31.4661 33.0148 29.5629V5.43703C33.0148 3.53397 31.4665 1.98556 29.5633 1.98556H14.6544C14.1061 1.98556 13.6616 1.54109 13.6616 0.992782C13.6616 0.444472 14.1061 0 14.6544 0H29.5634C32.5613 0 35.0004 2.43899 35.0004 5.43703V29.5629C35.0004 32.561 32.5614 35 29.5633 35Z" fill="#4C5BD4"/>
<path d="M19.8033 35.0009H5.43702C2.43899 35.0009 0 32.5619 0 29.5639V5.438C0 2.43997 2.43899 0.000976562 5.43702 0.000976562H7.67128C8.21958 0.000976562 8.66406 0.445449 8.66406 0.993759C8.66406 1.54207 8.21958 1.98654 7.67128 1.98654H5.43702C3.53397 1.98654 1.98556 3.53488 1.98556 5.438V29.5639C1.98556 31.467 3.5339 33.0154 5.43702 33.0154H19.8033C20.3515 33.0154 20.796 33.4598 20.796 34.0082C20.7961 34.5565 20.3515 35.0009 19.8033 35.0009Z" fill="#4C5BD4"/>
<path d="M12.1388 28.7544C12.1388 27.8982 11.9989 25.795 11.9977 25.1719C11.9972 24.8978 11.8111 24.8181 11.5877 24.7464C10.2289 24.3107 9.10944 23.548 8.31333 22.3403C7.60198 21.2614 7.25171 20.0603 7.10234 18.7938C6.81264 16.3387 6.83506 13.8892 7.42561 11.4787C7.94781 9.34683 9.22551 7.87136 11.3351 7.10799C13.846 6.19929 16.4311 6.18521 19.0426 6.28843C20.3089 6.33847 21.5577 6.48394 22.7745 6.82881C24.0701 7.19604 25.3482 7.62445 26.2666 8.69933C26.9222 9.46673 27.3156 10.3731 27.5706 11.3389C28.1502 13.5327 28.1618 15.7576 27.9605 18.0025C27.863 19.089 27.7379 20.1618 27.3486 21.1836C26.6038 23.138 25.1689 24.2798 23.1553 24.7892C20.8478 25.373 18.5115 25.5969 16.1402 25.508C15.8118 25.4957 15.6178 25.6626 15.4184 25.8822C14.1976 27.0545 12.2299 28.6695 12.1388 28.7544Z" fill="#4C5BD4" fill-opacity="0.2"/>
<path d="M12.1391 29.7472C12.0055 29.7472 11.8707 29.7203 11.7434 29.6648C11.3809 29.5073 11.1465 29.1497 11.1465 28.7544C11.1465 28.3128 11.105 27.4753 11.0683 26.7364C11.0469 26.3038 11.0273 25.9091 11.0159 25.6007C9.50318 25.0597 8.31633 24.1478 7.48515 22.8869C6.74851 21.7695 6.30103 20.4687 6.11708 18.9103C5.78171 16.0675 5.8945 13.5594 6.46209 11.2426C7.07335 8.74772 8.59947 7.0425 10.9981 6.17454C12.7603 5.53688 14.6547 5.25244 17.1408 5.25244C17.7046 5.25244 18.3216 5.26646 19.0826 5.29653C20.6105 5.35689 21.8698 5.54037 23.046 5.87376C24.4568 6.27366 25.9261 6.77145 27.0222 8.05456C27.7123 8.86229 28.206 9.8537 28.5314 11.0853C29.0648 13.1046 29.1978 15.3307 28.9502 18.0911C28.8504 19.2031 28.7162 20.3851 28.2773 21.5371C27.4432 23.7259 25.8021 25.144 23.3998 25.7516C21.3858 26.2612 19.2794 26.5196 17.139 26.5196C16.8283 26.5196 16.512 26.5142 16.1973 26.5034C16.1856 26.5155 16.1714 26.5306 16.1545 26.5493C16.1392 26.5662 16.1233 26.5824 16.1069 26.5982C15.0982 27.5667 13.59 28.8318 13.0224 29.3079C12.9114 29.401 12.8354 29.4646 12.8057 29.4905C12.6194 29.6589 12.381 29.7472 12.1391 29.7472ZM17.1405 7.238C14.8953 7.238 13.2092 7.48581 11.6735 8.04157C9.91382 8.67833 8.83996 9.88002 8.39036 11.715C7.88027 13.7971 7.78169 16.0746 8.08876 18.6775C8.2356 19.9214 8.58027 20.9409 9.14273 21.794C9.77594 22.7545 10.675 23.4111 11.8915 23.8011C12.7988 24.0921 12.9902 24.7063 12.9909 25.1703C12.9914 25.4303 13.0205 26.0169 13.0513 26.638C13.0519 26.6508 13.0526 26.6637 13.0533 26.6765C13.6099 26.1954 14.2214 25.6543 14.7074 25.189C14.9158 24.9608 15.3764 24.4867 16.178 24.5159C16.4987 24.5279 16.822 24.5341 17.1388 24.5341C19.115 24.5341 21.0575 24.2961 22.9125 23.8267C24.6997 23.3745 25.8147 22.4223 26.4215 20.83C26.7707 19.9139 26.8813 18.9277 26.9723 17.9136C27.2019 15.3556 27.0904 13.4061 26.6115 11.5924C26.3639 10.6556 26.0044 9.92015 25.5123 9.34422C24.7757 8.48187 23.6691 8.11416 22.5042 7.78406C21.4831 7.49456 20.3708 7.3346 19.0038 7.28052C18.2697 7.25147 17.6775 7.238 17.1405 7.238Z" fill="#4C5BD4"/>
<path d="M22.6672 20.0887C22.581 20.8587 22.1584 21.2887 21.7366 21.6993C21.2603 22.1632 20.6934 22.4387 20.0154 22.1673C19.4945 21.9588 18.9838 21.7211 18.4825 21.4689C16.9081 20.6774 15.5268 19.6195 14.3354 18.3278C12.9241 16.7975 11.8205 15.0723 11.1713 13.0769C11.0015 12.5553 11.0905 12.0903 11.5014 11.7327C11.8793 11.4039 12.2805 11.094 12.7045 10.8286C13.0104 10.6372 13.3811 10.6561 13.6597 10.9046C14.4357 11.5964 15.0704 12.4051 15.4819 13.3651C15.6214 13.6905 15.5906 14.0337 15.2719 14.2858C15.1159 14.4091 14.969 14.5437 14.8158 14.6706C14.3941 15.0198 14.3284 15.2625 14.4972 15.779C14.8809 16.9532 15.7055 17.7662 16.7007 18.4214C17.0365 18.6425 17.4289 18.7858 17.8087 18.9296C18.1322 19.0521 18.402 18.9173 18.61 18.6531C18.7185 18.5153 18.8237 18.375 18.935 18.2396C19.2524 17.8538 19.8099 17.7262 20.2245 18.0036C20.9528 18.4907 21.669 18.9987 22.3602 19.5363C22.5344 19.6717 22.5952 19.9524 22.6672 20.0887Z" fill="#4C5BD4"/>
<path d="M23.7108 16.7772C23.4366 16.7772 23.2144 16.5549 23.2144 16.2807C23.2144 12.8418 20.4166 10.0441 16.9779 10.0441C16.7038 10.0441 16.4814 9.82181 16.4814 9.54769C16.4814 9.27357 16.7038 9.05127 16.9779 9.05127C20.9641 9.05127 24.2072 12.2944 24.2072 16.2807C24.2072 16.5549 23.985 16.7772 23.7108 16.7772Z" fill="#4C5BD4"/>
<path d="M21.8745 16.7768C21.6003 16.7768 21.3781 16.5545 21.3781 16.2804C21.3781 13.8541 19.4042 11.8801 16.9779 11.8801C16.7038 11.8801 16.4814 11.6578 16.4814 11.3836C16.4814 11.1095 16.7038 10.8872 16.9779 10.8872C19.9516 10.8872 22.371 13.3065 22.371 16.2803C22.371 16.5545 22.1488 16.7768 21.8745 16.7768Z" fill="#4C5BD4"/>
<path d="M20.0384 16.777C19.7642 16.777 19.5419 16.5547 19.5419 16.2806C19.5419 14.8668 18.3917 13.7165 16.9779 13.7165C16.7037 13.7165 16.4814 13.4942 16.4814 13.2201C16.4814 12.9459 16.7037 12.7236 16.9779 12.7236C18.9391 12.7236 20.5347 14.3193 20.5347 16.2805C20.5347 16.5547 20.3126 16.777 20.0384 16.777Z" fill="#4C5BD4"/>
</g>
<defs>
<clipPath id="clip0_859_5379">
<rect width="35" height="35" fill="white"/>
</clipPath>
</defs>
</svg>
