<svg width="137" height="31" viewBox="0 0 137 31" fill="none" xmlns="http://www.w3.org/2000/svg">
<path d="M6.12375 16C5.00106 16 3.93669 15.8525 2.93065 15.5574C1.93919 15.2476 1.12998 14.8345 0.503022 14.3181C0.167674 14.0673 0 13.7132 0 13.2559C0 12.9461 0.0874821 12.6805 0.262446 12.4592C0.451991 12.2231 0.670696 12.1051 0.918562 12.1051C1.18101 12.1051 1.47991 12.2084 1.81525 12.4149C2.44221 12.8723 3.09832 13.2042 3.7836 13.4108C4.46888 13.6173 5.22705 13.7206 6.05813 13.7206C7.1225 13.7206 7.939 13.5362 8.50763 13.1674C9.07627 12.7838 9.36058 12.2305 9.36058 11.5076C9.36058 10.947 9.09085 10.5191 8.55137 10.2241C8.02648 9.91425 7.14437 9.61918 5.90504 9.33887C4.62197 9.05855 3.57947 8.73398 2.77756 8.36514C1.97564 7.99631 1.37055 7.5242 0.962303 6.94882C0.554053 6.37344 0.349928 5.64315 0.349928 4.75795C0.349928 3.84325 0.605084 3.02444 1.1154 2.30152C1.62571 1.57861 2.33286 1.01798 3.23684 0.619641C4.1554 0.206547 5.18331 0 6.32058 0C8.40557 0 10.1042 0.560627 11.4164 1.68188C11.606 1.84417 11.7372 2.00645 11.8101 2.16874C11.8976 2.31628 11.9413 2.50807 11.9413 2.74412C11.9413 3.05394 11.8465 3.32688 11.657 3.56293C11.482 3.78423 11.2706 3.89488 11.0227 3.89488C10.8769 3.89488 10.7384 3.87275 10.6072 3.82849C10.4906 3.78423 10.3302 3.70309 10.1261 3.58506C9.52826 3.14246 8.94504 2.81789 8.37641 2.61134C7.82236 2.39004 7.13708 2.27939 6.32058 2.27939C5.32912 2.27939 4.54178 2.48594 3.95856 2.89903C3.38993 3.29737 3.10561 3.858 3.10561 4.58091C3.10561 5.1858 3.36077 5.65053 3.87108 5.9751C4.38139 6.29968 5.24893 6.60212 6.47367 6.88243C7.77133 7.1775 8.82111 7.50945 9.62303 7.87828C10.4395 8.23236 11.0592 8.68972 11.482 9.25035C11.9194 9.81097 12.1381 10.5118 12.1381 11.3527C12.1381 12.2674 11.883 13.0788 11.3727 13.787C10.8769 14.4804 10.1698 15.0263 9.25123 15.4246C8.34725 15.8082 7.30475 16 6.12375 16Z" fill="#4C5BD4"/>
<path d="M28.425 0.0885204C28.8333 0.0885204 29.1613 0.2213 29.4092 0.48686C29.6571 0.737667 29.781 1.07699 29.781 1.50484V14.6058C29.781 15.0189 29.6643 15.3435 29.4311 15.5795C29.1978 15.8156 28.8916 15.9336 28.5125 15.9336C28.1334 15.9336 27.8345 15.8156 27.6158 15.5795C27.3971 15.3435 27.2877 15.0189 27.2877 14.6058V5.48824L23.5698 12.6141C23.3948 12.9387 23.2052 13.1821 23.0011 13.3444C22.797 13.4919 22.5564 13.5657 22.2794 13.5657C22.0024 13.5657 21.7618 13.4919 21.5577 13.3444C21.3535 13.1969 21.164 12.9534 20.989 12.6141L17.2492 5.59889V14.6058C17.2492 15.0042 17.1325 15.3287 16.8992 15.5795C16.6805 15.8156 16.3816 15.9336 16.0026 15.9336C15.6235 15.9336 15.3246 15.8156 15.1059 15.5795C14.8872 15.3435 14.7778 15.0189 14.7778 14.6058V1.50484C14.7778 1.07699 14.8944 0.737667 15.1277 0.48686C15.3756 0.2213 15.7037 0.0885204 16.1119 0.0885204C16.6805 0.0885204 17.1252 0.405717 17.446 1.04011L22.3013 10.4011L27.1347 1.04011C27.4554 0.405717 27.8855 0.0885204 28.425 0.0885204Z" fill="#4C5BD4"/>
<path d="M47.0985 14.0968C47.186 14.2886 47.2297 14.4804 47.2297 14.6722C47.2297 15.0115 47.0912 15.2992 46.8142 15.5353C46.5517 15.7713 46.2456 15.8893 45.8956 15.8893C45.6623 15.8893 45.4436 15.8303 45.2395 15.7123C45.0354 15.5795 44.875 15.3804 44.7584 15.1148L43.4461 12.1494H35.7477L34.4355 15.1148C34.3188 15.3804 34.1584 15.5795 33.9543 15.7123C33.7502 15.8303 33.5242 15.8893 33.2763 15.8893C32.941 15.8893 32.6348 15.7713 32.3578 15.5353C32.0807 15.2992 31.9422 15.0115 31.9422 14.6722C31.9422 14.4804 31.986 14.2886 32.0735 14.0968L38.1097 0.973722C38.2409 0.678654 38.4378 0.457354 38.7002 0.30982C38.9773 0.147534 39.2689 0.0663905 39.575 0.0663905C39.8812 0.0663905 40.1656 0.147534 40.428 0.30982C40.705 0.457354 40.9091 0.678654 41.0404 0.973722L47.0985 14.0968ZM36.71 9.93638H42.4838L39.5969 3.36376L36.71 9.93638Z" fill="#4C5BD4"/>
<path d="M61.6902 14.0083C61.8652 14.2739 61.9527 14.532 61.9527 14.7828C61.9527 15.1222 61.8142 15.4025 61.5371 15.6238C61.2747 15.8451 60.9612 15.9557 60.5967 15.9557C60.3634 15.9557 60.1374 15.9041 59.9187 15.8008C59.7146 15.6828 59.5396 15.5131 59.3938 15.2918L56.4851 10.8216C56.1934 10.3495 55.88 10.0175 55.5446 9.82573C55.2239 9.63393 54.801 9.53804 54.2761 9.53804H52.1328V14.4952C52.1328 14.9378 52.0089 15.2918 51.761 15.5574C51.5132 15.8082 51.1778 15.9336 50.755 15.9336C50.3321 15.9336 49.9895 15.8082 49.7271 15.5574C49.4792 15.2918 49.3553 14.9378 49.3553 14.4952V1.5491C49.3553 1.12125 49.4719 0.789305 49.7052 0.553252C49.9531 0.317198 50.2884 0.19917 50.7112 0.19917H56.1789C57.9285 0.19917 59.2553 0.597511 60.1593 1.39419C61.0779 2.17612 61.5371 3.31213 61.5371 4.80221C61.5371 6.01199 61.1945 7.00784 60.5092 7.78977C59.8385 8.55694 58.8835 9.05118 57.6442 9.27248C58.067 9.37575 58.4388 9.56017 58.7596 9.82573C59.0804 10.0913 59.3938 10.4601 59.7 10.9322L61.6902 14.0083ZM55.7852 7.34716C56.8496 7.34716 57.6296 7.14799 58.1253 6.74965C58.6211 6.33656 58.8689 5.70954 58.8689 4.8686C58.8689 4.01291 58.6211 3.39327 58.1253 3.00968C57.6296 2.61134 56.8496 2.41217 55.7852 2.41217H52.111V7.34716H55.7852Z" fill="#4C5BD4"/>
<path d="M69.187 15.9115C68.7496 15.9115 68.3997 15.7861 68.1373 15.5353C67.8894 15.2697 67.7655 14.923 67.7655 14.4952V2.54495H63.785C62.9102 2.54495 62.4728 2.15399 62.4728 1.37206C62.4728 0.590134 62.9102 0.19917 63.785 0.19917H74.5672C75.442 0.19917 75.8794 0.590134 75.8794 1.37206C75.8794 2.15399 75.442 2.54495 74.5672 2.54495H70.5868V14.4952C70.5868 14.923 70.4555 15.2697 70.1931 15.5353C69.9452 15.7861 69.6099 15.9115 69.187 15.9115Z" fill="#4C5BD4"/>
<path d="M78.9474 15.9336C78.5246 15.9336 78.182 15.8008 77.9195 15.5353C77.6717 15.2697 77.5477 14.923 77.5477 14.4952V1.50484C77.5477 1.07699 77.6717 0.737667 77.9195 0.48686C78.182 0.2213 78.5246 0.0885204 78.9474 0.0885204C79.3849 0.0885204 79.7275 0.2213 79.9754 0.48686C80.2378 0.737667 80.369 1.07699 80.369 1.50484V14.4952C80.369 14.923 80.2378 15.2697 79.9754 15.5353C79.7275 15.8008 79.3849 15.9336 78.9474 15.9336Z" fill="#4C5BD4"/>
<path d="M85.0548 15.8008C84.632 15.8008 84.2966 15.6828 84.0487 15.4467C83.8155 15.2107 83.6988 14.8787 83.6988 14.4509V1.5491C83.6988 1.12125 83.8155 0.789305 84.0487 0.553252C84.2966 0.317198 84.632 0.19917 85.0548 0.19917H89.3851C91.9075 0.19917 93.8613 0.8852 95.2465 2.25726C96.6462 3.61457 97.346 5.52513 97.346 7.98893C97.346 10.4675 96.6462 12.3928 95.2465 13.7649C93.8613 15.1222 91.9075 15.8008 89.3851 15.8008H85.0548ZM89.2102 13.4772C92.7532 13.4772 94.5247 11.6478 94.5247 7.98893C94.5247 4.34486 92.7532 2.52282 89.2102 2.52282H86.5201V13.4772H89.2102Z" fill="#4C5BD4"/>
<path d="M107.448 7.78977C108.367 8.02582 109.067 8.47579 109.548 9.13969C110.043 9.78884 110.291 10.6003 110.291 11.574C110.291 12.9166 109.803 13.9862 108.826 14.7828C107.849 15.5795 106.53 15.9779 104.867 15.9779C103.92 15.9779 103.008 15.8303 102.134 15.5353C101.259 15.2402 100.515 14.8271 99.9028 14.296C99.5675 14.0009 99.3998 13.6542 99.3998 13.2559C99.3998 12.9313 99.4873 12.6584 99.6622 12.4371C99.8518 12.201 100.071 12.083 100.318 12.083C100.464 12.083 100.595 12.1125 100.712 12.1715C100.829 12.2158 100.989 12.2969 101.193 12.4149C101.806 12.828 102.389 13.1452 102.943 13.3665C103.497 13.5878 104.102 13.6985 104.758 13.6985C105.72 13.6985 106.435 13.5067 106.901 13.1231C107.368 12.7248 107.601 12.1272 107.601 11.3306C107.601 10.5486 107.353 9.97326 106.858 9.60443C106.376 9.22084 105.626 9.02905 104.605 9.02905H103.358C103.023 9.02905 102.761 8.9184 102.571 8.69709C102.396 8.46104 102.309 8.19548 102.309 7.90041C102.309 7.59059 102.396 7.32503 102.571 7.10373C102.761 6.88243 103.023 6.77178 103.358 6.77178H104.233C106.231 6.77178 107.229 6.01199 107.229 4.49239C107.229 3.78423 107.018 3.23836 106.595 2.85477C106.172 2.47119 105.589 2.27939 104.846 2.27939C103.781 2.27939 102.644 2.70724 101.434 3.56293C101.23 3.68096 101.069 3.76948 100.953 3.82849C100.836 3.87275 100.705 3.89488 100.559 3.89488C100.311 3.89488 100.092 3.78423 99.9028 3.56293C99.7279 3.32688 99.6404 3.04657 99.6404 2.72199C99.6404 2.50069 99.6768 2.31628 99.7497 2.16874C99.8372 2.00645 99.9684 1.84417 100.143 1.68188C100.756 1.16551 101.485 0.759798 102.33 0.464731C103.191 0.154911 104.066 0 104.955 0C106.471 0 107.674 0.376211 108.564 1.12863C109.468 1.88105 109.92 2.88428 109.92 4.13831C109.905 4.99401 109.679 5.74643 109.242 6.39557C108.819 7.02997 108.221 7.4947 107.448 7.78977Z" fill="#4C5BD4"/>
<path d="M119.14 5.79806C120.059 5.79806 120.875 6.01199 121.59 6.43983C122.304 6.85293 122.858 7.44306 123.252 8.21024C123.66 8.96266 123.864 9.82572 123.864 10.7994C123.864 11.8027 123.638 12.7026 123.186 13.4993C122.749 14.2812 122.137 14.8935 121.349 15.3361C120.577 15.7787 119.694 16 118.703 16C116.749 16 115.24 15.3361 114.176 14.0083C113.126 12.6657 112.601 10.7552 112.601 8.27662C112.601 6.57999 112.849 5.11203 113.345 3.87275C113.84 2.61872 114.548 1.65975 115.466 0.995851C116.399 0.331951 117.493 0 118.747 0C119.578 0 120.409 0.154911 121.24 0.464731C122.086 0.759798 122.8 1.16551 123.383 1.68188C123.573 1.84417 123.704 2.00645 123.777 2.16874C123.864 2.31628 123.908 2.50069 123.908 2.72199C123.908 3.04657 123.813 3.32688 123.624 3.56293C123.449 3.78423 123.237 3.89488 122.99 3.89488C122.844 3.89488 122.705 3.87275 122.574 3.82849C122.443 3.76948 122.282 3.68096 122.093 3.56293C120.883 2.70724 119.804 2.27939 118.856 2.27939C117.792 2.27939 116.953 2.78101 116.341 3.78423C115.729 4.77271 115.408 6.1669 115.379 7.9668C115.714 7.3029 116.217 6.77916 116.888 6.39557C117.558 5.99723 118.309 5.79806 119.14 5.79806ZM118.55 13.7427C119.352 13.7427 119.993 13.4846 120.474 12.9682C120.956 12.4371 121.196 11.7437 121.196 10.888C121.196 10.0323 120.956 9.34624 120.474 8.82987C119.993 8.31351 119.352 8.05532 118.55 8.05532C117.733 8.05532 117.07 8.32089 116.56 8.85201C116.064 9.36837 115.816 10.047 115.816 10.888C115.816 11.7437 116.064 12.4371 116.56 12.9682C117.07 13.4846 117.733 13.7427 118.55 13.7427Z" fill="#4C5BD4"/>
<path d="M132.123 5.82019C133.085 5.82019 133.931 6.03412 134.66 6.46196C135.403 6.87506 135.979 7.45781 136.388 8.21024C136.796 8.96266 137 9.82572 137 10.7994C137 11.8174 136.767 12.7174 136.3 13.4993C135.848 14.2812 135.199 14.8935 134.354 15.3361C133.523 15.7639 132.56 15.9779 131.467 15.9779C130.563 15.9779 129.673 15.8303 128.799 15.5353C127.938 15.2254 127.202 14.8124 126.59 14.296C126.254 14.0009 126.087 13.6542 126.087 13.2559C126.087 12.9313 126.174 12.6584 126.349 12.4371C126.539 12.201 126.757 12.083 127.005 12.083C127.151 12.083 127.289 12.1125 127.421 12.1715C127.552 12.2158 127.705 12.2969 127.88 12.4149C128.463 12.828 129.032 13.1452 129.586 13.3665C130.14 13.5878 130.73 13.6985 131.357 13.6985C132.32 13.6985 133.056 13.455 133.566 12.9682C134.077 12.4813 134.332 11.7879 134.332 10.888C134.332 10.0175 134.069 9.33149 133.544 8.82987C133.034 8.31351 132.327 8.05532 131.423 8.05532C130.854 8.05532 130.344 8.13647 129.892 8.29875C129.455 8.46104 129.003 8.73398 128.536 9.11756C128.259 9.30936 127.975 9.40526 127.683 9.40526C127.392 9.40526 127.144 9.31674 126.94 9.13969C126.735 8.96265 126.633 8.7266 126.633 8.43154V1.52697C126.633 1.11388 126.75 0.789305 126.983 0.553252C127.217 0.317198 127.545 0.19917 127.967 0.19917H135.25C136.125 0.19917 136.563 0.568004 136.563 1.30567C136.563 2.04334 136.125 2.41217 135.25 2.41217H129.389V6.61687C130.133 6.08575 131.044 5.82019 132.123 5.82019Z" fill="#4C5BD4"/>
<path d="M8.79452 23.0238H5.61701V30.881H3.15701L3.15017 23.0238H0V21.0132H8.79452V23.0238Z" fill="#4C5BD4"/>
<path d="M11.5825 23.0899H9.24552V21H11.5825V23.0899ZM11.5825 30.881H9.24552V23.5463H11.5825V30.881Z" fill="#4C5BD4"/>
<path d="M23.4452 30.881H21.197V26.496C21.197 26.0463 21.131 25.7443 20.9989 25.5899C20.844 25.4621 20.5547 25.3981 20.131 25.3981L19.2632 25.418V30.881H16.9877V25.418H15.1222V30.881H12.8672V23.5463H20.2882C21.3679 23.5463 22.1628 23.7623 22.673 24.1944C23.1878 24.6221 23.4452 25.3144 23.4452 26.2712V30.881Z" fill="#4C5BD4"/>
<path d="M36.1211 23.5463L32.7932 30.881H30.5246L27.3607 23.5463H29.8686L31.7272 28.1958L33.7021 23.5463H36.1211Z" fill="#4C5BD4"/>
<path d="M38.8886 23.0899H36.5516V21H38.8886V23.0899ZM38.8886 30.881H36.5516V23.5463H38.8886V30.881Z" fill="#4C5BD4"/>
<path d="M46.4736 30.8743H43.5353C42.3052 30.8743 41.3714 30.5635 40.7336 29.9418C40.0912 29.3289 39.7701 28.4162 39.7701 27.2037C39.7701 26.0132 40.0912 25.1071 40.7336 24.4854C41.3805 23.8638 42.3144 23.5529 43.5353 23.5529H46.4736V25.3386H43.8018C43.1594 25.3386 42.7357 25.4158 42.5308 25.5701C42.3212 25.7332 42.2164 25.9824 42.2164 26.3175H46.4736V28.1164H42.2164C42.2164 28.4383 42.3052 28.6808 42.4829 28.8439C42.6606 29.0071 43.0956 29.0886 43.7881 29.0886H46.4736V30.8743Z" fill="#4C5BD4"/>
<path d="M53.5939 30.8743H50.8538C50.5167 30.8743 50.2114 30.8567 49.9381 30.8214C49.6693 30.7862 49.4188 30.7354 49.1864 30.6693C48.7673 30.5282 48.3801 30.2989 48.0248 29.9815C47.8653 29.8272 47.7195 29.642 47.5874 29.4259C47.4508 29.2187 47.3255 28.9938 47.2116 28.7513C47.1205 28.5176 47.0499 28.2773 46.9998 28.0304C46.9542 27.7879 46.9314 27.5212 46.9314 27.2302C46.9314 26.6834 47.0248 26.1698 47.2116 25.6892C47.3984 25.2174 47.6694 24.7919 48.0248 24.4127C48.3482 24.1261 48.7354 23.9123 49.1864 23.7712C49.6329 23.6257 50.1887 23.5529 50.8538 23.5529H53.5939V25.3915H51.4073C50.9517 25.3915 50.5873 25.418 50.3139 25.4709C50.0452 25.537 49.8356 25.6451 49.6853 25.795C49.3755 26.0683 49.2206 26.5467 49.2206 27.2302C49.2206 27.6093 49.2889 27.9312 49.4256 28.1958C49.544 28.4559 49.7308 28.672 49.9859 28.8439L50.4301 28.996C50.5531 29.0137 50.6784 29.0269 50.8059 29.0357C50.938 29.0445 51.1385 29.0489 51.4073 29.0489H53.5939V30.8743Z" fill="#4C5BD4"/>
<path d="M65.6001 28.1693C65.6001 29.0159 65.32 29.6795 64.7596 30.1601C64.1902 30.6362 63.4021 30.8743 62.3953 30.8743H57.3386V28.8968H61.5275C62.0195 28.8968 62.3771 28.8175 62.6003 28.6587C62.8235 28.4956 62.9351 28.2421 62.9351 27.8981C62.9351 27.5807 62.8281 27.3316 62.614 27.1508C62.3907 26.9788 62.0286 26.8929 61.5275 26.8929L58.1108 26.9061V24.9286H61.466C61.9716 24.9286 62.3361 24.8514 62.5593 24.6971C62.7734 24.5472 62.8805 24.3003 62.8805 23.9563C62.8805 23.6301 62.7734 23.3854 62.5593 23.2222C62.45 23.134 62.3065 23.0701 62.1288 23.0304C61.942 22.9951 61.7211 22.9775 61.466 22.9775H57.3386V21H62.1835C63.3041 21 64.1537 21.2183 64.7323 21.6548C65.3017 22.0957 65.5865 22.7813 65.5865 23.7116C65.5865 24.179 65.4794 24.5935 65.2653 24.955C65.0421 25.3166 64.7528 25.634 64.3975 25.9074C64.7892 26.1411 65.074 26.4211 65.2516 26.7474C65.484 27.1265 65.6001 27.6005 65.6001 28.1693Z" fill="#4C5BD4"/>
<path d="M75.7066 27.8452C75.7066 28.8814 75.3194 29.6662 74.545 30.1997C73.7705 30.7332 72.6544 31 71.1966 31C69.4746 31 68.2014 30.5988 67.3768 29.7963C66.5568 28.9982 66.1468 27.746 66.1468 26.0397C66.1468 24.3157 66.5864 23.0437 67.4656 22.2235C68.3312 21.4078 69.6819 21 71.5178 21H75.1805L75.1736 22.9775H71.4631C70.5429 22.9775 69.8755 23.1495 69.461 23.4934C69.2651 23.6565 69.117 23.8638 69.0168 24.1151C68.9029 24.3796 68.846 24.6839 68.846 25.0278H72.1533C73.3469 25.0278 74.2375 25.2593 74.8251 25.7222C75.4128 26.1808 75.7066 26.8884 75.7066 27.8452ZM73.0621 27.9511C73.0621 27.6336 72.9779 27.3933 72.8093 27.2302C72.6408 27.0802 72.3834 27.0053 72.0371 27.0053H68.8596C68.8596 27.6799 69.0555 28.1892 69.4473 28.5331C69.83 28.8858 70.4427 29.0622 71.2855 29.0622C71.9278 29.0622 72.3834 28.9718 72.6521 28.791C72.9255 28.6102 73.0621 28.3302 73.0621 27.9511Z" fill="#4C5BD4"/>
<path d="M85 27.8849C85 28.8505 84.6879 29.5913 84.0638 30.1071C83.4352 30.6186 82.5491 30.8743 81.4057 30.8743H76.0415V28.8968H80.941C81.4239 28.8968 81.7633 28.8175 81.9592 28.6587C82.1459 28.5044 82.2393 28.2465 82.2393 27.8849C82.2393 27.5146 82.1459 27.2478 81.9592 27.0847C81.7633 26.9303 81.4239 26.8532 80.941 26.8532H76.0415V21H84.5012L84.4943 22.9775H78.5493V24.8889H81.8635C82.8247 24.8889 83.5946 25.1468 84.1732 25.6627C84.4419 25.9317 84.6492 26.2469 84.795 26.6085C84.9317 26.9788 85 27.4043 85 27.8849Z" fill="#4C5BD4"/>
</svg>
