<svg width="28" height="14" viewBox="0 0 28 14" fill="none" xmlns="http://www.w3.org/2000/svg">
<path d="M0.994972 1.3649C0.994972 1.0799 1.09997 0.794902 1.32497 0.569902C1.75997 0.134902 2.47997 0.134902 2.91497 0.569902L12.695 10.3499C13.415 11.0699 14.585 11.0699 15.305 10.3499L25.085 0.569902C25.52 0.134902 26.24 0.134902 26.675 0.569902C27.11 1.0049 27.11 1.7249 26.675 2.1599L16.895 11.9399C16.13 12.7049 15.095 13.1399 14 13.1399C12.905 13.1399 11.87 12.7199 11.105 11.9399L1.32497 2.1599C1.11497 1.9349 0.994972 1.6499 0.994972 1.3649Z" fill="#474747"/>
</svg>
