<svg width="19" height="16" viewBox="0 0 19 16" fill="none" xmlns="http://www.w3.org/2000/svg">
<path fill-rule="evenodd" clip-rule="evenodd" d="M19 7.99996C19 8.29833 18.8815 8.58447 18.6705 8.79545C18.4595 9.00643 18.1734 9.12496 17.875 9.12496H4.84075L9.6715 13.9535C9.7761 14.0581 9.85907 14.1822 9.91568 14.3189C9.97228 14.4556 10.0014 14.602 10.0014 14.75C10.0014 14.8979 9.97228 15.0444 9.91568 15.181C9.85907 15.3177 9.7761 15.4419 9.6715 15.5465C9.5669 15.6511 9.44272 15.734 9.30606 15.7906C9.1694 15.8472 9.02292 15.8764 8.875 15.8764C8.72707 15.8764 8.5806 15.8472 8.44393 15.7906C8.30727 15.734 8.18309 15.6511 8.0785 15.5465L1.3285 8.79646C1.22373 8.69195 1.14061 8.56781 1.08389 8.43113C1.02718 8.29445 0.997986 8.14793 0.997986 7.99996C0.997986 7.85198 1.02718 7.70546 1.08389 7.56878C1.14061 7.4321 1.22373 7.30796 1.3285 7.20346L8.0785 0.453457C8.28974 0.242212 8.57625 0.123535 8.875 0.123535C9.17374 0.123535 9.46025 0.242212 9.6715 0.453457C9.88274 0.664701 10.0014 0.951211 10.0014 1.24996C10.0014 1.5487 9.88274 1.83521 9.6715 2.04646L4.84075 6.87496H17.875C18.1734 6.87496 18.4595 6.99348 18.6705 7.20446C18.8815 7.41544 19 7.70159 19 7.99996Z" fill="#474747"/>
</svg>
