<svg width="35" height="35" viewBox="0 0 35 35" fill="none" xmlns="http://www.w3.org/2000/svg">
<g clip-path="url(#clip0_859_5345)">
<path d="M29.5634 35H26.9817C26.4334 35 25.9889 34.5555 25.9889 34.0072C25.9889 33.4589 26.4334 33.0144 26.9817 33.0144H29.5634C31.4664 33.0144 33.0148 31.4661 33.0148 29.563V5.43703C33.0148 3.53397 31.4665 1.98557 29.5634 1.98557H14.6544C14.1061 1.98557 13.6616 1.54109 13.6616 0.992783C13.6616 0.444473 14.1061 0 14.6544 0H29.5634C32.5614 0 35.0004 2.43899 35.0004 5.43703V29.563C35.0004 32.561 32.5614 35 29.5634 35Z" fill="#4C5BD4"/>
<path d="M19.8032 35H5.43703C2.43899 35 0 32.561 0 29.563V5.43703C0 2.43899 2.43899 0 5.43703 0H7.67129C8.2196 0 8.66407 0.444473 8.66407 0.992783C8.66407 1.54109 8.2196 1.98557 7.67129 1.98557H5.43703C3.53397 1.98557 1.98557 3.53391 1.98557 5.43703V29.563C1.98557 31.466 3.53391 33.0144 5.43703 33.0144H19.8032C20.3515 33.0144 20.796 33.4589 20.796 34.0072C20.796 34.5555 20.3515 35 19.8032 35Z" fill="#4C5BD4"/>
<path d="M27.1462 8.25057L6.90571 16.1382C6.24994 16.3937 6.28986 17.3345 6.96477 17.5336L11.5881 18.8986L13.0252 24.2795C13.2256 24.9158 14.0318 25.1085 14.4985 24.6321L17.3438 21.9167L23.3781 26.6103C24.0166 27.079 24.9259 26.7306 25.0881 25.9556L28.5438 9.4338C28.713 8.62442 27.9168 7.95026 27.1462 8.25057Z" fill="#4C5BD4" fill-opacity="0.2"/>
<path d="M24.0162 27.8151H24.0161C23.573 27.8151 23.1481 27.6752 22.7878 27.4108C22.7803 27.4053 22.773 27.3997 22.7658 27.3941L17.4071 23.2259L15.1909 25.341C14.8365 25.6956 14.3674 25.8906 13.8678 25.8906C13.0431 25.8906 12.3228 25.3631 12.0755 24.5779C12.0711 24.5639 12.0669 24.5499 12.0632 24.5358L10.7699 19.6931L6.68081 18.4858C5.95996 18.273 5.47338 17.6502 5.44159 16.8992C5.40973 16.1481 5.8419 15.4863 6.54252 15.2133L26.783 7.32561C27.0224 7.23229 27.2719 7.18506 27.5247 7.18506C28.1375 7.18506 28.7128 7.46055 29.1031 7.94084C29.4894 8.41628 29.6387 9.03459 29.5126 9.63711L26.0568 26.1589C25.8562 27.1185 24.998 27.8151 24.0162 27.8151ZM23.9686 25.8143C23.9847 25.8249 23.9993 25.8295 24.0162 25.8295C24.0245 25.8295 24.0976 25.8274 24.1134 25.7524L27.5691 9.23058C27.573 9.21198 27.5716 9.20453 27.5621 9.19284C27.5517 9.18013 27.5355 9.17049 27.5246 9.17049C27.5196 9.17049 27.5123 9.17227 27.504 9.17555L7.95797 16.7925L11.8663 17.9465C12.1981 18.0445 12.455 18.3083 12.5443 18.6426L13.9232 23.8059L16.6554 21.1985C17.0112 20.8589 17.5621 20.8311 17.9503 21.1331L23.9686 25.8143Z" fill="#4C5BD4"/>
<path d="M15.0169 24.6234C15.0481 24.7243 16.1855 23.3025 16.1976 23.1973L15.6875 20.6997C15.6203 20.3707 15.7395 20.0315 15.9977 19.8169L25.3491 12.0462C25.5741 11.8471 25.3127 11.4959 25.0575 11.654L14.0608 18.3612C13.8001 18.5202 13.6655 18.8243 13.7232 19.1241L15.0169 24.6234Z" fill="#4C5BD4"/>
</g>
<defs>
<clipPath id="clip0_859_5345">
<rect width="35" height="35" fill="white"/>
</clipPath>
</defs>
</svg>
