<svg width="35" height="35" viewBox="0 0 35 35" fill="none" xmlns="http://www.w3.org/2000/svg">
<g clip-path="url(#clip0_859_5367)">
<path d="M29.461 35.0001H26.901C26.3574 35.0001 25.9166 34.5594 25.9166 34.0157C25.9166 33.472 26.3574 33.0312 26.901 33.0312H29.461C31.348 33.0312 32.8833 31.4959 32.8833 29.6089V5.68664C32.8833 3.79965 31.3481 2.2643 29.461 2.2643H14.6778C14.1342 2.2643 13.6934 1.82358 13.6934 1.27985C13.6934 0.736123 14.1342 0.29541 14.6778 0.29541H29.461C32.4336 0.29541 34.8522 2.71383 34.8522 5.68657V29.6089C34.8522 32.5817 32.4337 35.0001 29.461 35.0001Z" fill="#4C5BD4"/>
<path d="M19.7831 34.7047H5.53813C2.56553 34.7047 0.146973 32.2863 0.146973 29.3135V5.39116C0.146973 2.41842 2.56546 0 5.53813 0H7.75352C8.29712 0 8.73797 0.440713 8.73797 0.984443C8.73797 1.52817 8.29712 1.96889 7.75352 1.96889H5.53813C3.65114 1.96889 2.11579 3.50417 2.11579 5.39123V29.3135C2.11579 31.2005 3.65107 32.7359 5.53813 32.7359H19.7832C20.3268 32.7359 20.7676 33.1766 20.7676 33.7203C20.7676 34.264 20.3269 34.7047 19.7831 34.7047Z" fill="#4C5BD4"/>
<path d="M26.7246 19.3049C26.8384 18.7207 26.8987 18.1174 26.8987 17.5C26.8987 12.3098 22.6912 8.10228 17.5009 8.10228C16.8835 8.10228 16.2799 8.1625 15.6956 8.27605C14.8926 7.80601 13.9586 7.53564 12.9607 7.53564C9.9648 7.53564 7.53613 9.96432 7.53613 12.9602C7.53613 13.9577 7.80677 14.8918 8.27674 15.6952C8.16326 16.2794 8.10297 16.8826 8.10297 17.5002C8.10297 22.6904 12.3104 26.8979 17.5007 26.8979C18.1182 26.8979 18.7215 26.8377 19.3056 26.7239C20.1087 27.1939 21.0429 27.4645 22.0406 27.4645C25.0366 27.4645 27.4651 25.0359 27.4651 22.04C27.4653 21.0421 27.1946 20.1083 26.7246 19.3049Z" fill="#4C5BD4" fill-opacity="0.2"/>
<path d="M22.0412 28.4489C21.0305 28.4489 20.0343 28.2093 19.1378 27.753C18.5974 27.8389 18.0485 27.8823 17.5014 27.8823C11.7766 27.8823 7.11908 23.2248 7.11908 17.5002C7.11908 16.9537 7.16242 16.4049 7.24814 15.8638C6.79185 14.967 6.55225 13.9708 6.55225 12.9602C6.55225 9.42633 9.42724 6.55127 12.9611 6.55127C13.9722 6.55127 14.9684 6.79087 15.8648 7.24683C16.4057 7.16117 16.9546 7.1179 17.5014 7.1179C23.2261 7.1179 27.8835 11.7754 27.8835 17.5C27.8835 18.0472 27.8402 18.5961 27.7542 19.1366C28.2105 20.0334 28.4501 21.0297 28.4501 22.04C28.4502 25.5738 25.5751 28.4489 22.0412 28.4489ZM19.3062 25.7393C19.48 25.7393 19.6517 25.7853 19.8035 25.8741C20.4807 26.2705 21.2544 26.4801 22.0412 26.4801C24.4895 26.4801 26.4813 24.4883 26.4813 22.04C26.4813 21.2535 26.2717 20.4797 25.8753 19.802C25.7544 19.5953 25.713 19.3517 25.7587 19.1167C25.8621 18.586 25.9146 18.0421 25.9146 17.5C25.9146 12.8609 22.1404 9.08679 17.5013 9.08679C16.9597 9.08679 16.4154 9.13915 15.8837 9.24244C15.6486 9.28824 15.4052 9.24654 15.1987 9.12568C14.5219 8.72954 13.7482 8.52016 12.961 8.52016C10.5128 8.52016 8.52093 10.5119 8.52093 12.9602C8.52093 13.7468 8.73038 14.5206 9.12673 15.1981C9.24759 15.4046 9.28908 15.648 9.24349 15.8829C9.1402 16.4148 9.08783 16.9591 9.08783 17.5003C9.08783 22.1394 12.8621 25.9135 17.5013 25.9135C18.0431 25.9135 18.587 25.861 19.1178 25.7577C19.1803 25.7453 19.2434 25.7393 19.3062 25.7393Z" fill="#4C5BD4"/>
<path d="M17.5709 22.4743C16.2623 22.4743 15.2377 22.1963 14.4963 21.6404C14.0404 21.2984 13.7129 20.848 13.5141 20.2892C13.3099 19.7156 13.7425 19.1133 14.3514 19.1133H14.5519C14.9214 19.1133 15.2641 19.3319 15.3957 19.6772C15.5118 19.9819 15.6936 20.2264 15.9408 20.4105C16.3254 20.6969 16.8519 20.8401 17.5202 20.8401C18.1323 20.8401 18.6166 20.7334 18.9733 20.52C19.3299 20.3066 19.5082 19.9978 19.5082 19.5933C19.5082 19.4137 19.4646 19.2621 19.3776 19.1386C19.2905 19.0151 19.1586 18.907 18.9817 18.8142C18.8047 18.7216 18.5844 18.636 18.3204 18.5572C18.0564 18.4787 17.7448 18.3944 17.3854 18.3045L17.0232 18.2034C16.5684 18.0855 16.1358 17.9663 15.726 17.8454C15.316 17.7247 14.9566 17.5646 14.6479 17.3652C14.339 17.1659 14.0931 16.9075 13.9108 16.5903C13.7282 16.2731 13.6371 15.8617 13.6371 15.3563C13.6371 14.8733 13.7382 14.4537 13.9403 14.0969C14.1425 13.7404 14.4163 13.4455 14.7616 13.2124C15.107 12.9794 15.5071 12.8068 15.962 12.6944C16.4168 12.5821 16.897 12.5259 17.4024 12.5259C17.9863 12.5259 18.5157 12.5947 18.9902 12.7323C19.4647 12.8699 19.8718 13.0679 20.2116 13.3261C20.5513 13.5845 20.8167 13.9004 21.0076 14.2738C21.0095 14.2775 21.0114 14.2812 21.0134 14.285C21.3044 14.8614 20.8671 15.5415 20.2213 15.5415H20.0251C19.6743 15.5415 19.3421 15.3494 19.1958 15.0307C19.0988 14.8193 18.9545 14.6456 18.7628 14.5097C18.4343 14.2768 17.9807 14.1601 17.4023 14.1601C16.8464 14.1601 16.4196 14.2598 16.122 14.4592C15.8243 14.6585 15.6755 14.9323 15.6755 15.2804C15.6755 15.4433 15.7134 15.5824 15.7892 15.6974C15.865 15.8126 15.9829 15.9137 16.143 16.0006C16.3031 16.0877 16.5081 16.1677 16.7579 16.2407C17.0078 16.3137 17.3069 16.3923 17.655 16.4765C18.0031 16.5552 18.3415 16.6338 18.67 16.7123C18.9985 16.791 19.3073 16.8808 19.5966 16.9819C19.8857 17.083 20.1496 17.2023 20.3884 17.3399C20.627 17.4775 20.8306 17.6446 20.9991 17.8412C21.1675 18.0378 21.2994 18.2707 21.395 18.5403C21.4904 18.8098 21.5382 19.1272 21.5382 19.4921C21.5382 19.9695 21.4441 20.3934 21.256 20.7641C21.0678 21.1347 20.8012 21.4464 20.4558 21.6991C20.1103 21.9518 19.6934 22.1442 19.2049 22.276C18.7165 22.4083 18.1717 22.4743 17.5709 22.4743Z" fill="#4C5BD4"/>
</g>
<defs>
<clipPath id="clip0_859_5367">
<rect width="35" height="35" fill="white"/>
</clipPath>
</defs>
</svg>
