<svg width="36" height="36" viewBox="0 0 36 36" fill="none" xmlns="http://www.w3.org/2000/svg">
<path d="M29.975 2H6.275C3.395 2 2 3.47 2 6.47V12.53C2 15.545 3.395 17 6.275 17H29.975C32.855 17 34.25 15.53 34.25 12.53V6.47C34.25 3.47 32.855 2 29.975 2ZM6.275 14.75C4.76 14.75 4.25 14.435 4.25 12.53V6.47C4.25 4.565 4.76 4.25 6.275 4.25H29.975C31.49 4.25 32 4.565 32 6.47V12.53C32 14.435 31.49 14.75 29.975 14.75H6.275Z" fill="#AAAAAA"/>
<path d="M19.475 19.25H6.275C3.395 19.25 2 20.72 2 23.72V29.78C2 32.795 3.395 34.25 6.275 34.25H19.475C22.355 34.25 23.75 32.78 23.75 29.78V23.72C23.75 20.72 22.355 19.25 19.475 19.25ZM6.275 32C4.76 32 4.25 31.685 4.25 29.78V23.72C4.25 21.815 4.76 21.5 6.275 21.5H19.475C20.99 21.5 21.5 21.815 21.5 23.72V29.78C21.5 31.685 20.99 32 19.475 32H6.275Z" fill="#AAAAAA"/>
</svg>
