<svg width="36" height="36" viewBox="0 0 36 36" fill="none" xmlns="http://www.w3.org/2000/svg">
<path d="M29.78 17H23.72C20.705 17 19.25 15.665 19.25 12.905V6.095C19.25 3.335 20.72 2 23.72 2H29.78C32.795 2 34.25 3.335 34.25 6.095V12.89C34.25 15.665 32.78 17 29.78 17ZM23.72 4.25C21.71 4.25 21.5 4.82 21.5 6.095V12.89C21.5 14.18 21.71 14.735 23.72 14.735H29.78C31.79 14.735 32 14.165 32 12.89V6.095C32 4.805 31.79 4.25 29.78 4.25H23.72Z" fill="#AAAAAA"/>
<path d="M29.78 34.25H23.72C20.705 34.25 19.25 32.78 19.25 29.78V23.72C19.25 20.705 20.72 19.25 23.72 19.25H29.78C32.795 19.25 34.25 20.72 34.25 23.72V29.78C34.25 32.78 32.78 34.25 29.78 34.25ZM23.72 21.5C21.95 21.5 21.5 21.95 21.5 23.72V29.78C21.5 31.55 21.95 32 23.72 32H29.78C31.55 32 32 31.55 32 29.78V23.72C32 21.95 31.55 21.5 29.78 21.5H23.72Z" fill="#AAAAAA"/>
<path d="M12.53 17H6.47C3.455 17 2 15.665 2 12.905V6.095C2 3.335 3.47 2 6.47 2H12.53C15.545 2 17 3.335 17 6.095V12.89C17 15.665 15.53 17 12.53 17ZM6.47 4.25C4.46 4.25 4.25 4.82 4.25 6.095V12.89C4.25 14.18 4.46 14.735 6.47 14.735H12.53C14.54 14.735 14.75 14.165 14.75 12.89V6.095C14.75 4.805 14.54 4.25 12.53 4.25H6.47Z" fill="#AAAAAA"/>
<path d="M12.53 34.25H6.47C3.455 34.25 2 32.78 2 29.78V23.72C2 20.705 3.47 19.25 6.47 19.25H12.53C15.545 19.25 17 20.72 17 23.72V29.78C17 32.78 15.53 34.25 12.53 34.25ZM6.47 21.5C4.7 21.5 4.25 21.95 4.25 23.72V29.78C4.25 31.55 4.7 32 6.47 32H12.53C14.3 32 14.75 31.55 14.75 29.78V23.72C14.75 21.95 14.3 21.5 12.53 21.5H6.47Z" fill="#AAAAAA"/>
</svg>
