<svg width="36" height="36" viewBox="0 0 36 36" fill="none" xmlns="http://www.w3.org/2000/svg">
<path d="M29.78 17H23.72C20.705 17 19.25 15.665 19.25 12.905V6.095C19.25 3.335 20.72 2 23.72 2H29.78C32.795 2 34.25 3.335 34.25 6.095V12.89C34.25 15.665 32.78 17 29.78 17Z" fill="#4C5BD4"/>
<path d="M29.78 34.25H23.72C20.705 34.25 19.25 32.78 19.25 29.78V23.72C19.25 20.705 20.72 19.25 23.72 19.25H29.78C32.795 19.25 34.25 20.72 34.25 23.72V29.78C34.25 32.78 32.78 34.25 29.78 34.25Z" fill="#4C5BD4"/>
<path d="M12.53 17H6.47C3.455 17 2 15.665 2 12.905V6.095C2 3.335 3.47 2 6.47 2H12.53C15.545 2 17 3.335 17 6.095V12.89C17 15.665 15.53 17 12.53 17Z" fill="#4C5BD4"/>
<path d="M12.53 34.25H6.47C3.455 34.25 2 32.78 2 29.78V23.72C2 20.705 3.47 19.25 6.47 19.25H12.53C15.545 19.25 17 20.72 17 23.72V29.78C17 32.78 15.53 34.25 12.53 34.25Z" fill="#4C5BD4"/>
</svg>
